<svg xmlns="http://www.w3.org/2000/svg" xmlns:xlink="http://www.w3.org/1999/xlink" width="500" zoomAndPan="magnify" viewBox="0 0 375 374.999991" height="500" preserveAspectRatio="xMidYMid meet" version="1.0"><defs><g/><clipPath id="8f63410dcc"><path d="M 199.734375 167.621094 L 298.726562 167.621094 L 298.726562 207.371094 L 199.734375 207.371094 Z M 199.734375 167.621094 " clip-rule="nonzero"/></clipPath><clipPath id="244a388637"><path d="M 204.21875 167.621094 L 294.234375 167.621094 C 295.425781 167.621094 296.566406 168.09375 297.40625 168.9375 C 298.246094 169.777344 298.71875 170.917969 298.71875 172.109375 L 298.71875 202.886719 C 298.71875 204.074219 298.246094 205.21875 297.40625 206.058594 C 296.566406 206.898438 295.425781 207.371094 294.234375 207.371094 L 204.21875 207.371094 C 203.027344 207.371094 201.886719 206.898438 201.046875 206.058594 C 200.207031 205.21875 199.734375 204.074219 199.734375 202.886719 L 199.734375 172.109375 C 199.734375 170.917969 200.207031 169.777344 201.046875 168.9375 C 201.886719 168.09375 203.027344 167.621094 204.21875 167.621094 " clip-rule="nonzero"/></clipPath><clipPath id="5bd6a0d43a"><path d="M 75.953125 167.503906 L 199.726562 167.503906 L 199.726562 207.378906 L 75.953125 207.378906 Z M 75.953125 167.503906 " clip-rule="nonzero"/></clipPath></defs><g clip-path="url(#8f63410dcc)"><g clip-path="url(#244a388637)"><path stroke-linecap="butt" transform="matrix(0.747611, 0, 0, 0.747795, 199.733384, 167.622236)" fill="none" stroke-linejoin="miter" d="M 5.999602 -0.00152775 L 126.404038 -0.00152775 C 127.997657 -0.00152775 129.523351 0.630539 130.646722 1.758855 C 131.770093 2.881948 132.402315 4.407265 132.402315 6.00049 L 132.402315 47.157932 C 132.402315 48.745933 131.770093 50.276474 130.646722 51.399567 C 129.523351 52.52266 127.997657 53.154726 126.404038 53.154726 L 5.999602 53.154726 C 4.405983 53.154726 2.880289 52.52266 1.756919 51.399567 C 0.633548 50.276474 0.00132531 48.745933 0.00132531 47.157932 L 0.00132531 6.00049 C 0.00132531 4.407265 0.633548 2.881948 1.756919 1.758855 C 2.880289 0.630539 4.405983 -0.00152775 5.999602 -0.00152775 " stroke="#13104c" stroke-width="8" stroke-opacity="1" stroke-miterlimit="4"/></g></g><g clip-path="url(#5bd6a0d43a)"><path fill="#a41e22" d="M 75.953125 167.503906 L 199.910156 167.503906 L 199.910156 207.441406 L 75.953125 207.441406 Z M 75.953125 167.503906 " fill-opacity="1" fill-rule="nonzero"/></g><g fill="#ffffff" fill-opacity="1"><g transform="translate(104.339757, 198.059109)"><g><path d="M 1.96875 0 L 1.96875 -20.703125 L 15.78125 -20.703125 L 18.90625 -17.59375 L 18.90625 -12.609375 L 17.5 -11.1875 L 19.71875 -9.109375 L 19.71875 -3.125 L 16.609375 0 Z M 7.21875 -12.671875 L 12.890625 -12.671875 L 13.875 -13.65625 L 13.875 -15.734375 L 12.890625 -16.71875 L 7.21875 -16.71875 Z M 7.21875 -3.984375 L 13.484375 -3.984375 L 14.46875 -4.96875 L 14.46875 -8.03125 L 13.484375 -9.015625 L 7.21875 -9.015625 Z M 7.21875 -3.984375 "/></g></g></g><g fill="#ffffff" fill-opacity="1"><g transform="translate(127.448884, 198.059109)"><g><path d="M 4.890625 0 L 1.828125 -3.125 L 1.828125 -20.703125 L 7.078125 -20.703125 L 7.078125 -4.96875 L 8.0625 -3.984375 L 13.765625 -3.984375 L 14.75 -4.96875 L 14.75 -20.703125 L 20 -20.703125 L 20 -3.125 L 16.890625 0 Z M 4.890625 0 "/></g></g></g><g fill="#ffffff" fill-opacity="1"><g transform="translate(151.400354, 198.059109)"><g><path d="M 2.078125 0 L 2.078125 -4.21875 L 12.859375 -4.21875 L 13.84375 -5.203125 L 13.84375 -7.5 L 12.859375 -8.484375 L 4.375 -8.484375 L 1.265625 -11.625 L 1.265625 -17.59375 L 4.375 -20.703125 L 17.921875 -20.703125 L 17.921875 -16.484375 L 7.421875 -16.484375 L 6.4375 -15.5 L 6.4375 -13.6875 L 7.421875 -12.703125 L 15.90625 -12.703125 L 19.015625 -9.578125 L 19.015625 -3.125 L 15.90625 0 Z M 2.078125 0 "/></g></g></g><g fill="#13104c" fill-opacity="1"><g transform="translate(215.761222, 198.059109)"><g><path d="M 5.921875 0 L 5.921875 -16.4375 L 0.140625 -16.4375 L 0.140625 -20.703125 L 16.96875 -20.703125 L 16.96875 -16.4375 L 11.1875 -16.4375 L 11.1875 0 Z M 5.921875 0 "/></g></g></g><g fill="#13104c" fill-opacity="1"><g transform="translate(232.860777, 198.059109)"><g><path d="M 1.96875 0 L 1.96875 -20.703125 L 17.703125 -20.703125 L 17.703125 -16.4375 L 7.21875 -16.4375 L 7.21875 -12.609375 L 16.65625 -12.609375 L 16.65625 -8.65625 L 7.21875 -8.65625 L 7.21875 -4.265625 L 17.703125 -4.265625 L 17.703125 0 Z M 1.96875 0 "/></g></g></g><g fill="#13104c" fill-opacity="1"><g transform="translate(251.953869, 198.059109)"><g><path d="M 1.96875 0 L 1.96875 -20.703125 L 7.21875 -20.703125 L 7.21875 -12.46875 L 13.625 -20.703125 L 19.4375 -20.703125 L 12.140625 -11.6875 L 19.4375 0 L 13.84375 0 L 9.1875 -8 L 7.21875 -5.59375 L 7.21875 0 Z M 1.96875 0 "/></g></g></g><g fill="#13104c" fill-opacity="1"><g transform="translate(271.383899, 198.059109)"><g><path d="M 1.125 0 L 1.125 -3.96875 L 3.421875 -3.96875 L 3.375 -16.75 L 1.125 -16.75 L 1.125 -20.703125 L 10.671875 -20.703125 L 10.671875 -16.75 L 8.40625 -16.75 L 8.34375 -3.96875 L 10.671875 -3.96875 L 10.671875 0 Z M 1.125 0 "/></g></g></g></svg>