<svg xmlns="http://www.w3.org/2000/svg" xmlns:xlink="http://www.w3.org/1999/xlink" width="398" zoomAndPan="magnify" viewBox="0 0 298.5 115.499997" height="154" preserveAspectRatio="xMidYMid meet" version="1.0"><defs><g/><clipPath id="f30f2e0ccb"><path d="M 161.449219 37.773438 L 260.183594 37.773438 L 260.183594 77.417969 L 161.449219 77.417969 Z M 161.449219 37.773438 " clip-rule="nonzero"/></clipPath><clipPath id="f2a27de17c"><path d="M 165.925781 37.773438 L 255.703125 37.773438 C 256.890625 37.773438 258.027344 38.242188 258.867188 39.082031 C 259.707031 39.921875 260.175781 41.058594 260.175781 42.246094 L 260.175781 72.941406 C 260.175781 74.128906 259.707031 75.265625 258.867188 76.105469 C 258.027344 76.945312 256.890625 77.417969 255.703125 77.417969 L 165.925781 77.417969 C 164.738281 77.417969 163.601562 76.945312 162.761719 76.105469 C 161.921875 75.265625 161.449219 74.128906 161.449219 72.941406 L 161.449219 42.246094 C 161.449219 41.058594 161.921875 39.921875 162.761719 39.082031 C 163.601562 38.242188 164.738281 37.773438 165.925781 37.773438 " clip-rule="nonzero"/></clipPath><clipPath id="72a35e7b50"><path d="M 37.996094 37.652344 L 161.445312 37.652344 L 161.445312 77.421875 L 37.996094 77.421875 Z M 37.996094 37.652344 " clip-rule="nonzero"/></clipPath></defs><g clip-path="url(#f30f2e0ccb)"><g clip-path="url(#f2a27de17c)"><path stroke-linecap="butt" transform="matrix(0.745635, 0, 0, 0.745819, 161.451066, 37.772141)" fill="none" stroke-linejoin="miter" d="M 6.001214 0.00173864 L 126.40509 0.00173864 C 127.997693 0.00173864 129.52219 0.630242 130.648537 1.756311 C 131.774884 2.88238 132.403543 4.406501 132.403543 5.998709 L 132.403543 47.155212 C 132.403543 48.747421 131.774884 50.271542 130.648537 51.397611 C 129.52219 52.523679 127.997693 53.15742 126.40509 53.15742 L 6.001214 53.15742 C 4.408611 53.15742 2.884114 52.523679 1.757767 51.397611 C 0.63142 50.271542 -0.00247798 48.747421 -0.00247798 47.155212 L -0.00247798 5.998709 C -0.00247798 4.406501 0.63142 2.88238 1.757767 1.756311 C 2.884114 0.630242 4.408611 0.00173864 6.001214 0.00173864 " stroke="#13104c" stroke-width="8" stroke-opacity="1" stroke-miterlimit="4"/></g></g><g clip-path="url(#72a35e7b50)"><path fill="#a41e22" d="M 37.996094 37.652344 L 161.628906 37.652344 L 161.628906 77.484375 L 37.996094 77.484375 Z M 37.996094 37.652344 " fill-opacity="1" fill-rule="nonzero"/></g><g fill="#ffffff" fill-opacity="1"><g transform="translate(70.049594, 66.632584)"><g><path d="M 13.640625 -10.078125 C 14.785156 -9.835938 15.703125 -9.273438 16.390625 -8.390625 C 17.078125 -7.503906 17.421875 -6.488281 17.421875 -5.34375 C 17.421875 -3.707031 16.847656 -2.40625 15.703125 -1.4375 C 14.554688 -0.476562 12.953125 0 10.890625 0 L 1.734375 0 L 1.734375 -19.671875 L 10.59375 -19.671875 C 12.59375 -19.671875 14.15625 -19.210938 15.28125 -18.296875 C 16.414062 -17.378906 16.984375 -16.132812 16.984375 -14.5625 C 16.984375 -13.40625 16.675781 -12.441406 16.0625 -11.671875 C 15.457031 -10.910156 14.648438 -10.378906 13.640625 -10.078125 Z M 6.53125 -11.703125 L 9.671875 -11.703125 C 10.453125 -11.703125 11.050781 -11.875 11.46875 -12.21875 C 11.894531 -12.570312 12.109375 -13.082031 12.109375 -13.75 C 12.109375 -14.425781 11.894531 -14.941406 11.46875 -15.296875 C 11.050781 -15.648438 10.453125 -15.828125 9.671875 -15.828125 L 6.53125 -15.828125 Z M 10.0625 -3.859375 C 10.863281 -3.859375 11.484375 -4.039062 11.921875 -4.40625 C 12.359375 -4.769531 12.578125 -5.300781 12.578125 -6 C 12.578125 -6.6875 12.347656 -7.222656 11.890625 -7.609375 C 11.429688 -8.003906 10.800781 -8.203125 10 -8.203125 L 6.53125 -8.203125 L 6.53125 -3.859375 Z M 10.0625 -3.859375 "/></g></g></g><g fill="#ffffff" fill-opacity="1"><g transform="translate(90.633313, 66.632584)"><g><path d="M 6.4375 -19.671875 L 6.4375 -7.90625 C 6.4375 -6.726562 6.726562 -5.820312 7.3125 -5.1875 C 7.894531 -4.550781 8.742188 -4.234375 9.859375 -4.234375 C 10.984375 -4.234375 11.84375 -4.550781 12.4375 -5.1875 C 13.03125 -5.820312 13.328125 -6.726562 13.328125 -7.90625 L 13.328125 -19.671875 L 18.125 -19.671875 L 18.125 -7.921875 C 18.125 -6.171875 17.75 -4.6875 17 -3.46875 C 16.257812 -2.257812 15.257812 -1.34375 14 -0.71875 C 12.738281 -0.101562 11.332031 0.203125 9.78125 0.203125 C 8.226562 0.203125 6.835938 -0.0976562 5.609375 -0.703125 C 4.390625 -1.316406 3.425781 -2.234375 2.71875 -3.453125 C 2.007812 -4.679688 1.65625 -6.171875 1.65625 -7.921875 L 1.65625 -19.671875 Z M 6.4375 -19.671875 "/></g></g></g><g fill="#ffffff" fill-opacity="1"><g transform="translate(112.505211, 66.632584)"><g><path d="M 8.859375 0.203125 C 7.421875 0.203125 6.128906 -0.03125 4.984375 -0.5 C 3.847656 -0.96875 2.9375 -1.660156 2.25 -2.578125 C 1.570312 -3.492188 1.210938 -4.597656 1.171875 -5.890625 L 6.28125 -5.890625 C 6.351562 -5.160156 6.601562 -4.601562 7.03125 -4.21875 C 7.457031 -3.832031 8.019531 -3.640625 8.71875 -3.640625 C 9.425781 -3.640625 9.984375 -3.800781 10.390625 -4.125 C 10.804688 -4.457031 11.015625 -4.910156 11.015625 -5.484375 C 11.015625 -5.972656 10.847656 -6.375 10.515625 -6.6875 C 10.191406 -7.007812 9.789062 -7.269531 9.3125 -7.46875 C 8.832031 -7.675781 8.15625 -7.914062 7.28125 -8.1875 C 6.007812 -8.570312 4.972656 -8.960938 4.171875 -9.359375 C 3.367188 -9.753906 2.675781 -10.332031 2.09375 -11.09375 C 1.519531 -11.863281 1.234375 -12.863281 1.234375 -14.09375 C 1.234375 -15.925781 1.894531 -17.359375 3.21875 -18.390625 C 4.539062 -19.429688 6.269531 -19.953125 8.40625 -19.953125 C 10.570312 -19.953125 12.316406 -19.429688 13.640625 -18.390625 C 14.960938 -17.359375 15.671875 -15.914062 15.765625 -14.0625 L 10.59375 -14.0625 C 10.550781 -14.695312 10.316406 -15.195312 9.890625 -15.5625 C 9.460938 -15.925781 8.910156 -16.109375 8.234375 -16.109375 C 7.660156 -16.109375 7.191406 -15.953125 6.828125 -15.640625 C 6.472656 -15.335938 6.296875 -14.894531 6.296875 -14.3125 C 6.296875 -13.675781 6.59375 -13.179688 7.1875 -12.828125 C 7.789062 -12.472656 8.726562 -12.09375 10 -11.6875 C 11.269531 -11.25 12.300781 -10.832031 13.09375 -10.4375 C 13.882812 -10.050781 14.570312 -9.484375 15.15625 -8.734375 C 15.738281 -7.992188 16.03125 -7.035156 16.03125 -5.859375 C 16.03125 -4.734375 15.742188 -3.710938 15.171875 -2.796875 C 14.597656 -1.878906 13.769531 -1.148438 12.6875 -0.609375 C 11.601562 -0.0664062 10.328125 0.203125 8.859375 0.203125 Z M 8.859375 0.203125 "/></g></g></g><g fill="#13104c" fill-opacity="1"><g transform="translate(177.436543, 68.12862)"><g><path d="M 5.90625 0 L 5.90625 -16.390625 L 0.140625 -16.390625 L 0.140625 -20.640625 L 16.921875 -20.640625 L 16.921875 -16.390625 L 11.15625 -16.390625 L 11.15625 0 Z M 5.90625 0 "/></g></g></g><g fill="#13104c" fill-opacity="1"><g transform="translate(194.490911, 68.12862)"><g><path d="M 1.96875 0 L 1.96875 -20.640625 L 17.65625 -20.640625 L 17.65625 -16.390625 L 7.203125 -16.390625 L 7.203125 -12.578125 L 16.609375 -12.578125 L 16.609375 -8.625 L 7.203125 -8.625 L 7.203125 -4.265625 L 17.65625 -4.265625 L 17.65625 0 Z M 1.96875 0 "/></g></g></g><g fill="#13104c" fill-opacity="1"><g transform="translate(213.533549, 68.12862)"><g><path d="M 1.96875 0 L 1.96875 -20.640625 L 7.203125 -20.640625 L 7.203125 -12.4375 L 13.59375 -20.640625 L 19.390625 -20.640625 L 12.109375 -11.65625 L 19.390625 0 L 13.8125 0 L 9.15625 -7.984375 L 7.203125 -5.578125 L 7.203125 0 Z M 1.96875 0 "/></g></g></g><g fill="#13104c" fill-opacity="1"><g transform="translate(232.912235, 68.12862)"><g><path d="M 1.125 0 L 1.125 -3.953125 L 3.421875 -3.953125 L 3.359375 -16.703125 L 1.125 -16.703125 L 1.125 -20.640625 L 10.640625 -20.640625 L 10.640625 -16.703125 L 8.375 -16.703125 L 8.328125 -3.953125 L 10.640625 -3.953125 L 10.640625 0 Z M 1.125 0 "/></g></g></g></svg>