<svg xmlns="http://www.w3.org/2000/svg" xmlns:xlink="http://www.w3.org/1999/xlink" width="500" zoomAndPan="magnify" viewBox="0 0 375 374.999991" height="500" preserveAspectRatio="xMidYMid meet" version="1.0"><defs><g/><clipPath id="ed317de72b"><path d="M 206.777344 156.175781 L 362.765625 156.175781 L 362.765625 218.8125 L 206.777344 218.8125 Z M 206.777344 156.175781 " clip-rule="nonzero"/></clipPath><clipPath id="0f777eb1e6"><path d="M 211.261719 156.175781 L 358.273438 156.175781 C 360.75 156.175781 362.757812 158.1875 362.757812 160.664062 L 362.757812 214.328125 C 362.757812 216.804688 360.75 218.8125 358.273438 218.8125 L 211.261719 218.8125 C 208.785156 218.8125 206.777344 216.804688 206.777344 214.328125 L 206.777344 160.664062 C 206.777344 158.1875 208.785156 156.175781 211.261719 156.175781 " clip-rule="nonzero"/></clipPath><clipPath id="a8bf5b1d6b"><path d="M 11.730469 155.992188 L 206.765625 155.992188 L 206.765625 218.824219 L 11.730469 218.824219 Z M 11.730469 155.992188 " clip-rule="nonzero"/></clipPath></defs><g clip-path="url(#ed317de72b)"><g clip-path="url(#0f777eb1e6)"><path stroke-linecap="butt" transform="matrix(1.178055, 0, 0, 1.178346, 206.776894, 156.177352)" fill="none" stroke-linejoin="miter" d="M 3.806975 -0.00133314 L 128.598924 -0.00133314 C 130.701172 -0.00133314 132.405518 1.705907 132.405518 3.807636 L 132.405518 49.349509 C 132.405518 51.451238 130.701172 53.155163 128.598924 53.155163 L 3.806975 53.155163 C 1.704728 53.155163 0.00038167 51.451238 0.00038167 49.349509 L 0.00038167 3.807636 C 0.00038167 1.705907 1.704728 -0.00133314 3.806975 -0.00133314 " stroke="#13104c" stroke-width="5.076917" stroke-opacity="1" stroke-miterlimit="4"/></g></g><g clip-path="url(#a8bf5b1d6b)"><path fill="#a41e22" d="M 11.730469 155.992188 L 207.058594 155.992188 L 207.058594 218.921875 L 11.730469 218.921875 Z M 11.730469 155.992188 " fill-opacity="1" fill-rule="nonzero"/></g><g fill="#ffffff" fill-opacity="1"><g transform="translate(62.368549, 201.774971)"><g><path d="M 21.5625 -15.9375 C 23.351562 -15.550781 24.796875 -14.65625 25.890625 -13.25 C 26.984375 -11.851562 27.53125 -10.253906 27.53125 -8.453125 C 27.53125 -5.859375 26.625 -3.800781 24.8125 -2.28125 C 23 -0.757812 20.46875 0 17.21875 0 L 2.75 0 L 2.75 -31.078125 L 16.734375 -31.078125 C 19.890625 -31.078125 22.359375 -30.351562 24.140625 -28.90625 C 25.929688 -27.457031 26.828125 -25.492188 26.828125 -23.015625 C 26.828125 -21.191406 26.347656 -19.671875 25.390625 -18.453125 C 24.429688 -17.242188 23.15625 -16.40625 21.5625 -15.9375 Z M 10.3125 -18.5 L 15.265625 -18.5 C 16.503906 -18.5 17.457031 -18.769531 18.125 -19.3125 C 18.789062 -19.863281 19.125 -20.671875 19.125 -21.734375 C 19.125 -22.796875 18.789062 -23.609375 18.125 -24.171875 C 17.457031 -24.734375 16.503906 -25.015625 15.265625 -25.015625 L 10.3125 -25.015625 Z M 15.890625 -6.109375 C 17.160156 -6.109375 18.140625 -6.394531 18.828125 -6.96875 C 19.523438 -7.539062 19.875 -8.375 19.875 -9.46875 C 19.875 -10.5625 19.507812 -11.414062 18.78125 -12.03125 C 18.0625 -12.65625 17.066406 -12.96875 15.796875 -12.96875 L 10.3125 -12.96875 L 10.3125 -6.109375 Z M 15.890625 -6.109375 "/></g></g></g><g fill="#ffffff" fill-opacity="1"><g transform="translate(94.889476, 201.774971)"><g><path d="M 10.1875 -31.078125 L 10.1875 -12.484375 C 10.1875 -10.617188 10.640625 -9.1875 11.546875 -8.1875 C 12.460938 -7.1875 13.804688 -6.6875 15.578125 -6.6875 C 17.347656 -6.6875 18.707031 -7.1875 19.65625 -8.1875 C 20.601562 -9.1875 21.078125 -10.617188 21.078125 -12.484375 L 21.078125 -31.078125 L 28.640625 -31.078125 L 28.640625 -12.53125 C 28.640625 -9.75 28.046875 -7.398438 26.859375 -5.484375 C 25.679688 -3.566406 24.097656 -2.117188 22.109375 -1.140625 C 20.117188 -0.171875 17.898438 0.3125 15.453125 0.3125 C 13.003906 0.3125 10.8125 -0.164062 8.875 -1.125 C 6.9375 -2.082031 5.40625 -3.523438 4.28125 -5.453125 C 3.164062 -7.390625 2.609375 -9.75 2.609375 -12.53125 L 2.609375 -31.078125 Z M 10.1875 -31.078125 "/></g></g></g><g fill="#ffffff" fill-opacity="1"><g transform="translate(129.44564, 201.774971)"><g><path d="M 13.984375 0.3125 C 11.710938 0.3125 9.675781 -0.0546875 7.875 -0.796875 C 6.070312 -1.535156 4.632812 -2.625 3.5625 -4.0625 C 2.488281 -5.507812 1.921875 -7.253906 1.859375 -9.296875 L 9.921875 -9.296875 C 10.035156 -8.140625 10.429688 -7.257812 11.109375 -6.65625 C 11.785156 -6.050781 12.671875 -5.75 13.765625 -5.75 C 14.890625 -5.75 15.773438 -6.003906 16.421875 -6.515625 C 17.066406 -7.035156 17.390625 -7.753906 17.390625 -8.671875 C 17.390625 -9.441406 17.128906 -10.078125 16.609375 -10.578125 C 16.097656 -11.078125 15.46875 -11.488281 14.71875 -11.8125 C 13.96875 -12.144531 12.898438 -12.515625 11.515625 -12.921875 C 9.503906 -13.546875 7.863281 -14.164062 6.59375 -14.78125 C 5.320312 -15.40625 4.226562 -16.320312 3.3125 -17.53125 C 2.40625 -18.738281 1.953125 -20.316406 1.953125 -22.265625 C 1.953125 -25.160156 3 -27.425781 5.09375 -29.0625 C 7.1875 -30.695312 9.914062 -31.515625 13.28125 -31.515625 C 16.707031 -31.515625 19.46875 -30.695312 21.5625 -29.0625 C 23.65625 -27.425781 24.773438 -25.144531 24.921875 -22.21875 L 16.734375 -22.21875 C 16.671875 -23.21875 16.300781 -24.003906 15.625 -24.578125 C 14.945312 -25.160156 14.078125 -25.453125 13.015625 -25.453125 C 12.097656 -25.453125 11.359375 -25.207031 10.796875 -24.71875 C 10.234375 -24.226562 9.953125 -23.53125 9.953125 -22.625 C 9.953125 -21.613281 10.425781 -20.828125 11.375 -20.265625 C 12.320312 -19.710938 13.796875 -19.109375 15.796875 -18.453125 C 17.804688 -17.773438 19.4375 -17.125 20.6875 -16.5 C 21.945312 -15.882812 23.03125 -14.988281 23.9375 -13.8125 C 24.851562 -12.632812 25.3125 -11.113281 25.3125 -9.25 C 25.3125 -7.476562 24.863281 -5.867188 23.96875 -4.421875 C 23.070312 -2.972656 21.765625 -1.820312 20.046875 -0.96875 C 18.335938 -0.113281 16.316406 0.3125 13.984375 0.3125 Z M 13.984375 0.3125 "/></g></g></g><g fill="#13104c" fill-opacity="1"><g transform="translate(232.032888, 204.13861)"><g><path d="M 9.34375 0 L 9.34375 -25.890625 L 0.21875 -25.890625 L 0.21875 -32.625 L 26.734375 -32.625 L 26.734375 -25.890625 L 17.625 -25.890625 L 17.625 0 Z M 9.34375 0 "/></g></g></g><g fill="#13104c" fill-opacity="1"><g transform="translate(258.977673, 204.13861)"><g><path d="M 3.09375 0 L 3.09375 -32.625 L 27.890625 -32.625 L 27.890625 -25.890625 L 11.375 -25.890625 L 11.375 -19.875 L 26.25 -19.875 L 26.25 -13.640625 L 11.375 -13.640625 L 11.375 -6.734375 L 27.890625 -6.734375 L 27.890625 0 Z M 3.09375 0 "/></g></g></g><g fill="#13104c" fill-opacity="1"><g transform="translate(289.063793, 204.13861)"><g><path d="M 3.09375 0 L 3.09375 -32.625 L 11.375 -32.625 L 11.375 -19.65625 L 21.46875 -32.625 L 30.625 -32.625 L 19.125 -18.421875 L 30.625 0 L 21.828125 0 L 14.46875 -12.609375 L 11.375 -8.8125 L 11.375 0 Z M 3.09375 0 "/></g></g></g><g fill="#13104c" fill-opacity="1"><g transform="translate(319.680846, 204.13861)"><g><path d="M 1.765625 0 L 1.765625 -6.234375 L 5.40625 -6.234375 L 5.3125 -26.375 L 1.765625 -26.375 L 1.765625 -32.625 L 16.828125 -32.625 L 16.828125 -26.375 L 13.234375 -26.375 L 13.140625 -6.234375 L 16.828125 -6.234375 L 16.828125 0 Z M 1.765625 0 "/></g></g></g></svg>