<svg xmlns="http://www.w3.org/2000/svg" xmlns:xlink="http://www.w3.org/1999/xlink" width="500" zoomAndPan="magnify" viewBox="0 0 375 374.999991" height="500" preserveAspectRatio="xMidYMid meet" version="1.0"><defs><g/><clipPath id="3827e6468a"><path d="M 124.046875 169.066406 L 351.816406 169.066406 L 351.816406 229 L 124.046875 229 Z M 124.046875 169.066406 " clip-rule="nonzero"/></clipPath><clipPath id="8061bc4729"><path d="M 124.046875 178 L 268 178 L 268 238 L 124.046875 238 Z M 124.046875 178 " clip-rule="nonzero"/></clipPath><clipPath id="3b6ae18ceb"><path d="M 124.046875 187 L 297 187 L 297 248 L 124.046875 248 Z M 124.046875 187 " clip-rule="nonzero"/></clipPath><clipPath id="fc42388153"><path d="M 124.046875 197 L 219 197 L 219 257 L 124.046875 257 Z M 124.046875 197 " clip-rule="nonzero"/></clipPath><clipPath id="3c09a98938"><path d="M 124.046875 206 L 315 206 L 315 266 L 124.046875 266 Z M 124.046875 206 " clip-rule="nonzero"/></clipPath><clipPath id="46b20e404b"><path d="M 124.046875 216 L 250 216 L 250 276 L 124.046875 276 Z M 124.046875 216 " clip-rule="nonzero"/></clipPath><clipPath id="142bc19209"><path d="M 124.046875 225 L 219 225 L 219 284.390625 L 124.046875 284.390625 Z M 124.046875 225 " clip-rule="nonzero"/></clipPath><clipPath id="eea557ff77"><path d="M 23.710938 150.671875 L 195.914062 150.671875 L 195.914062 233.230469 L 23.710938 233.230469 Z M 23.710938 150.671875 " clip-rule="nonzero"/></clipPath><clipPath id="2c737a98ad"><path d="M 168 157 L 214 157 L 214 168.683594 L 168 168.683594 Z M 168 157 " clip-rule="nonzero"/></clipPath></defs><g clip-path="url(#3827e6468a)"><path fill="#13104c" d="M 346.191406 227.023438 C 343.902344 227.023438 342.039062 225.164062 342.039062 222.878906 C 342.039062 220.59375 343.902344 218.734375 346.191406 218.734375 C 348.480469 218.734375 350.34375 220.59375 350.34375 222.878906 C 350.34375 225.164062 348.480469 227.023438 346.191406 227.023438 Z M 351.617188 222.878906 C 351.617188 219.894531 349.183594 217.464844 346.191406 217.464844 C 343.414062 217.464844 341.121094 219.558594 340.804688 222.242188 L 184.332031 222.242188 L 125.074219 169.066406 L 124.222656 170.011719 L 183.664062 223.351562 L 183.84375 223.511719 L 340.804688 223.511719 C 341.121094 226.199219 343.414062 228.292969 346.191406 228.292969 C 349.183594 228.292969 351.617188 225.863281 351.617188 222.878906 " fill-opacity="1" fill-rule="nonzero"/></g><g clip-path="url(#8061bc4729)"><path fill="#13104c" d="M 183.84375 232.96875 L 258.140625 232.96875 C 258.453125 235.308594 260.457031 237.113281 262.886719 237.113281 C 265.53125 237.113281 267.675781 234.972656 267.675781 232.332031 C 267.675781 229.695312 265.53125 227.554688 262.886719 227.554688 C 260.457031 227.554688 258.453125 229.359375 258.140625 231.699219 L 184.332031 231.699219 L 125.074219 178.523438 L 124.222656 179.46875 L 183.664062 232.804688 L 183.84375 232.96875 " fill-opacity="1" fill-rule="nonzero"/></g><g clip-path="url(#3b6ae18ceb)"><path fill="#13104c" d="M 287.15625 241.789062 C 287.15625 239.507812 289.015625 237.648438 291.304688 237.648438 C 293.597656 237.648438 295.457031 239.507812 295.457031 241.789062 C 295.457031 244.074219 293.597656 245.933594 291.304688 245.933594 C 289.015625 245.933594 287.15625 244.074219 287.15625 241.789062 Z M 183.664062 242.261719 L 183.84375 242.425781 L 285.917969 242.425781 C 286.234375 245.113281 288.53125 247.203125 291.304688 247.203125 C 294.296875 247.203125 296.730469 244.777344 296.730469 241.789062 C 296.730469 238.804688 294.296875 236.378906 291.304688 236.378906 C 288.53125 236.378906 286.234375 238.46875 285.917969 241.15625 L 184.332031 241.15625 L 125.074219 187.980469 L 124.222656 188.921875 L 183.664062 242.261719 " fill-opacity="1" fill-rule="nonzero"/></g><g clip-path="url(#fc42388153)"><path fill="#13104c" d="M 209.332031 251.246094 C 209.332031 248.960938 211.195312 247.105469 213.484375 247.105469 C 215.773438 247.105469 217.636719 248.960938 217.636719 251.246094 C 217.636719 253.53125 215.773438 255.386719 213.484375 255.386719 C 211.195312 255.386719 209.332031 253.53125 209.332031 251.246094 Z M 183.664062 251.71875 L 183.84375 251.882812 L 208.097656 251.882812 C 208.414062 254.570312 210.710938 256.660156 213.484375 256.660156 C 216.476562 256.660156 218.910156 254.230469 218.910156 251.246094 C 218.910156 248.261719 216.476562 245.835938 213.484375 245.835938 C 210.710938 245.835938 208.414062 247.925781 208.097656 250.609375 L 184.332031 250.609375 L 125.074219 197.433594 L 124.222656 198.378906 L 183.664062 251.71875 " fill-opacity="1" fill-rule="nonzero"/></g><g clip-path="url(#3c09a98938)"><path fill="#13104c" d="M 309.699219 255.925781 C 307.273438 255.925781 305.265625 257.730469 304.957031 260.066406 L 184.332031 260.066406 L 125.074219 206.890625 L 124.222656 207.835938 L 183.84375 261.335938 L 304.957031 261.335938 C 305.265625 263.675781 307.273438 265.480469 309.699219 265.480469 C 312.34375 265.480469 314.488281 263.339844 314.488281 260.703125 C 314.488281 258.0625 312.34375 255.925781 309.699219 255.925781 " fill-opacity="1" fill-rule="nonzero"/></g><g clip-path="url(#46b20e404b)"><path fill="#13104c" d="M 244.492188 274.300781 C 242.203125 274.300781 240.339844 272.441406 240.339844 270.160156 C 240.339844 267.871094 242.203125 266.015625 244.492188 266.015625 C 246.78125 266.015625 248.644531 267.871094 248.644531 270.160156 C 248.644531 272.441406 246.78125 274.300781 244.492188 274.300781 Z M 244.492188 264.746094 C 241.71875 264.746094 239.421875 266.835938 239.105469 269.523438 L 184.332031 269.523438 L 125.074219 216.347656 L 124.222656 217.292969 L 183.664062 270.628906 L 183.84375 270.792969 L 239.105469 270.792969 C 239.421875 273.480469 241.71875 275.570312 244.492188 275.570312 C 247.484375 275.570312 249.917969 273.144531 249.917969 270.160156 C 249.917969 267.175781 247.484375 264.746094 244.492188 264.746094 " fill-opacity="1" fill-rule="nonzero"/></g><g clip-path="url(#142bc19209)"><path fill="#13104c" d="M 214.121094 274.835938 C 211.695312 274.835938 209.6875 276.640625 209.378906 278.980469 L 184.332031 278.980469 L 125.074219 225.804688 L 124.222656 226.746094 L 183.664062 280.085938 L 183.84375 280.25 L 209.378906 280.25 C 209.6875 282.589844 211.695312 284.390625 214.121094 284.390625 C 216.765625 284.390625 218.910156 282.253906 218.910156 279.613281 C 218.910156 276.976562 216.765625 274.835938 214.121094 274.835938 " fill-opacity="1" fill-rule="nonzero"/></g><g clip-path="url(#eea557ff77)"><path fill="#a41e22" d="M 23.710938 150.671875 L 196.175781 150.671875 L 196.175781 233.414062 L 23.710938 233.414062 Z M 23.710938 150.671875 " fill-opacity="1" fill-rule="nonzero"/></g><path fill="#13104c" d="M 163.511719 131.730469 L 218.75 131.730469 L 218.75 136.347656 C 218.746094 137.257812 218.65625 138.160156 218.476562 139.050781 C 218.296875 139.941406 218.035156 140.804688 217.6875 141.644531 C 217.339844 142.484375 216.914062 143.28125 216.410156 144.039062 C 215.90625 144.792969 215.332031 145.492188 214.691406 146.136719 C 214.050781 146.777344 213.355469 147.351562 212.601562 147.859375 C 211.847656 148.363281 211.054688 148.792969 210.21875 149.140625 C 209.382812 149.488281 208.519531 149.753906 207.632812 149.933594 C 206.742188 150.113281 205.847656 150.203125 204.941406 150.207031 L 177.320312 150.207031 C 176.417969 150.203125 175.519531 150.113281 174.632812 149.933594 C 173.742188 149.753906 172.878906 149.488281 172.042969 149.140625 C 171.207031 148.792969 170.414062 148.363281 169.660156 147.859375 C 168.90625 147.351562 168.210938 146.777344 167.570312 146.136719 C 166.929688 145.492188 166.355469 144.792969 165.851562 144.039062 C 165.347656 143.28125 164.921875 142.484375 164.574219 141.644531 C 164.226562 140.804688 163.964844 139.941406 163.785156 139.050781 C 163.605469 138.160156 163.515625 137.257812 163.511719 136.347656 Z M 163.511719 131.730469 " fill-opacity="1" fill-rule="nonzero"/><path fill="#13104c" d="M 220.5 49.925781 C 217.839844 47.738281 214.976562 45.867188 211.90625 44.316406 C 208.835938 42.765625 205.632812 41.570312 202.296875 40.730469 C 198.960938 39.890625 195.574219 39.429688 192.140625 39.34375 C 188.703125 39.261719 185.296875 39.554688 181.925781 40.226562 C 179.878906 40.617188 177.867188 41.152344 175.894531 41.824219 C 173.921875 42.496094 172.003906 43.300781 170.140625 44.238281 C 168.277344 45.175781 166.488281 46.238281 164.773438 47.421875 C 163.054688 48.609375 161.429688 49.90625 159.890625 51.316406 C 158.351562 52.726562 156.917969 54.238281 155.589844 55.847656 C 154.257812 57.457031 153.046875 59.152344 151.949219 60.929688 C 150.851562 62.707031 149.882812 64.550781 149.039062 66.464844 C 148.195312 68.378906 147.488281 70.339844 146.914062 72.347656 C 146.339844 74.359375 145.90625 76.398438 145.613281 78.46875 C 145.320312 80.539062 145.171875 82.621094 145.167969 84.710938 C 145.160156 86.804688 145.296875 88.886719 145.578125 90.957031 C 145.859375 93.03125 146.277344 95.074219 146.839844 97.085938 C 147.402344 99.101562 148.097656 101.066406 148.929688 102.984375 C 149.761719 104.902344 150.722656 106.75 151.808594 108.535156 C 152.894531 110.320312 154.097656 112.019531 155.417969 113.640625 C 156.738281 115.257812 158.164062 116.777344 159.691406 118.195312 C 160.976562 119.398438 161.910156 120.832031 162.5 122.492188 L 219.761719 122.492188 C 220.410156 120.832031 221.378906 119.382812 222.660156 118.148438 C 223.253906 117.601562 223.828125 117.042969 224.390625 116.464844 C 224.953125 115.886719 225.496094 115.292969 226.027344 114.6875 C 226.558594 114.082031 227.070312 113.460938 227.566406 112.824219 C 228.0625 112.191406 228.542969 111.542969 229.003906 110.882812 C 229.464844 110.222656 229.910156 109.550781 230.335938 108.867188 C 230.761719 108.183594 231.167969 107.488281 231.558594 106.78125 C 231.945312 106.074219 232.316406 105.359375 232.667969 104.632812 C 233.019531 103.90625 233.347656 103.171875 233.660156 102.429688 C 233.972656 101.683594 234.261719 100.933594 234.53125 100.171875 C 234.804688 99.414062 235.054688 98.648438 235.285156 97.875 C 235.515625 97.101562 235.722656 96.324219 235.910156 95.539062 C 236.101562 94.753906 236.265625 93.964844 236.414062 93.171875 C 236.558594 92.378906 236.683594 91.582031 236.789062 90.78125 C 236.890625 89.984375 236.972656 89.179688 237.035156 88.375 C 237.09375 87.570312 237.132812 86.765625 237.152344 85.960938 C 237.167969 85.152344 237.164062 84.347656 237.140625 83.539062 C 237.113281 82.734375 237.066406 81.929688 237 81.125 C 236.929688 80.320312 236.839844 79.519531 236.726562 78.722656 C 236.617188 77.921875 236.484375 77.128906 236.328125 76.335938 C 236.175781 75.542969 236 74.757812 235.804688 73.972656 C 235.609375 73.191406 235.390625 72.414062 235.152344 71.644531 C 234.917969 70.875 234.660156 70.109375 234.378906 69.355469 C 234.101562 68.597656 233.804688 67.847656 233.484375 67.109375 C 233.164062 66.367188 232.828125 65.636719 232.46875 64.914062 C 232.113281 64.191406 231.734375 63.476562 231.339844 62.777344 C 230.945312 62.074219 230.53125 61.382812 230.097656 60.703125 C 229.664062 60.023438 229.214844 59.355469 228.746094 58.699219 C 228.277344 58.042969 227.792969 57.402344 227.289062 56.773438 C 226.785156 56.140625 226.265625 55.527344 225.730469 54.925781 C 225.195312 54.324219 224.644531 53.738281 224.078125 53.164062 C 223.507812 52.59375 222.925781 52.039062 222.332031 51.496094 C 221.734375 50.957031 221.121094 50.433594 220.5 49.925781 Z M 214.605469 85.445312 C 214.300781 85.5 213.996094 85.53125 213.6875 85.539062 C 213.15625 85.539062 212.640625 85.449219 212.140625 85.269531 C 211.640625 85.09375 211.183594 84.835938 210.773438 84.496094 C 210.363281 84.160156 210.019531 83.765625 209.746094 83.308594 C 209.472656 82.855469 209.28125 82.363281 209.175781 81.84375 C 208.996094 80.960938 208.753906 80.09375 208.445312 79.25 C 208.140625 78.402344 207.777344 77.582031 207.351562 76.785156 C 206.925781 75.992188 206.445312 75.234375 205.910156 74.511719 C 205.375 73.789062 204.789062 73.109375 204.152344 72.472656 C 203.519531 71.832031 202.839844 71.246094 202.121094 70.707031 C 201.398438 70.171875 200.644531 69.6875 199.851562 69.261719 C 199.0625 68.835938 198.246094 68.46875 197.398438 68.160156 C 196.554688 67.855469 195.691406 67.613281 194.8125 67.433594 C 194.515625 67.371094 194.230469 67.28125 193.949219 67.164062 C 193.671875 67.046875 193.40625 66.902344 193.15625 66.734375 C 192.90625 66.5625 192.675781 66.371094 192.460938 66.15625 C 192.25 65.941406 192.058594 65.707031 191.894531 65.453125 C 191.726562 65.199219 191.585938 64.933594 191.472656 64.652344 C 191.359375 64.371094 191.273438 64.082031 191.214844 63.785156 C 191.15625 63.484375 191.128906 63.183594 191.128906 62.882812 C 191.132812 62.578125 191.164062 62.277344 191.222656 61.980469 C 191.285156 61.683594 191.371094 61.394531 191.488281 61.117188 C 191.605469 60.835938 191.75 60.570312 191.917969 60.320312 C 192.089844 60.066406 192.28125 59.835938 192.496094 59.621094 C 192.710938 59.410156 192.941406 59.21875 193.195312 59.050781 C 193.449219 58.882812 193.714844 58.742188 193.992188 58.628906 C 194.273438 58.511719 194.5625 58.425781 194.859375 58.371094 C 195.15625 58.3125 195.453125 58.285156 195.757812 58.285156 C 196.058594 58.285156 196.359375 58.316406 196.65625 58.378906 C 197.976562 58.648438 199.269531 59.011719 200.535156 59.46875 C 201.804688 59.929688 203.03125 60.476562 204.21875 61.117188 C 205.40625 61.757812 206.539062 62.480469 207.621094 63.285156 C 208.703125 64.09375 209.71875 64.972656 210.671875 65.929688 C 211.625 66.886719 212.5 67.90625 213.304688 68.992188 C 214.109375 70.078125 214.828125 71.214844 215.464844 72.40625 C 216.105469 73.597656 216.652344 74.828125 217.109375 76.101562 C 217.566406 77.371094 217.929688 78.671875 218.195312 79.996094 C 218.257812 80.292969 218.289062 80.59375 218.289062 80.898438 C 218.292969 81.199219 218.261719 81.5 218.207031 81.796875 C 218.148438 82.097656 218.0625 82.386719 217.949219 82.667969 C 217.832031 82.949219 217.691406 83.214844 217.527344 83.46875 C 217.359375 83.71875 217.171875 83.953125 216.957031 84.171875 C 216.746094 84.386719 216.511719 84.578125 216.261719 84.75 C 216.011719 84.917969 215.746094 85.0625 215.46875 85.179688 C 215.191406 85.296875 214.902344 85.386719 214.605469 85.445312 Z M 214.605469 85.445312 " fill-opacity="1" fill-rule="nonzero"/><g clip-path="url(#2c737a98ad)"><path fill="#13104c" d="M 213.871094 157.6875 C 213.703125 158.460938 213.476562 159.210938 213.183594 159.945312 C 212.890625 160.675781 212.539062 161.378906 212.128906 162.050781 C 211.714844 162.722656 211.25 163.355469 210.730469 163.949219 C 210.214844 164.542969 209.648438 165.085938 209.039062 165.582031 C 208.425781 166.078125 207.777344 166.519531 207.09375 166.90625 C 206.40625 167.292969 205.691406 167.617188 204.953125 167.882812 C 204.210938 168.144531 203.453125 168.34375 202.679688 168.480469 C 201.902344 168.613281 201.125 168.679688 200.335938 168.683594 L 181.925781 168.683594 C 181.140625 168.679688 180.359375 168.613281 179.582031 168.480469 C 178.808594 168.34375 178.050781 168.144531 177.308594 167.882812 C 176.570312 167.617188 175.855469 167.292969 175.171875 166.90625 C 174.484375 166.519531 173.835938 166.078125 173.222656 165.582031 C 172.613281 165.085938 172.046875 164.542969 171.53125 163.949219 C 171.011719 163.355469 170.546875 162.722656 170.132812 162.050781 C 169.722656 161.378906 169.371094 160.675781 169.078125 159.945312 C 168.785156 159.210938 168.558594 158.460938 168.390625 157.6875 C 171.257812 158.851562 174.234375 159.4375 177.320312 159.445312 L 204.941406 159.445312 C 208.03125 159.4375 211.007812 158.851562 213.871094 157.6875 Z M 213.871094 157.6875 " fill-opacity="1" fill-rule="nonzero"/></g><g fill="#ffffff" fill-opacity="1"><g transform="translate(52.298286, 211.269691)"><g><path d="M 26.296875 -19.4375 C 28.484375 -18.96875 30.242188 -17.878906 31.578125 -16.171875 C 32.910156 -14.460938 33.578125 -12.507812 33.578125 -10.3125 C 33.578125 -7.144531 32.46875 -4.632812 30.25 -2.78125 C 28.039062 -0.925781 24.957031 0 21 0 L 3.34375 0 L 3.34375 -37.890625 L 20.40625 -37.890625 C 24.257812 -37.890625 27.273438 -37.007812 29.453125 -35.25 C 31.628906 -33.488281 32.71875 -31.097656 32.71875 -28.078125 C 32.71875 -25.835938 32.128906 -23.976562 30.953125 -22.5 C 29.785156 -21.03125 28.234375 -20.007812 26.296875 -19.4375 Z M 12.578125 -22.5625 L 18.625 -22.5625 C 20.132812 -22.5625 21.296875 -22.894531 22.109375 -23.5625 C 22.921875 -24.226562 23.328125 -25.207031 23.328125 -26.5 C 23.328125 -27.800781 22.921875 -28.789062 22.109375 -29.46875 C 21.296875 -30.15625 20.132812 -30.5 18.625 -30.5 L 12.578125 -30.5 Z M 19.375 -7.453125 C 20.925781 -7.453125 22.125 -7.800781 22.96875 -8.5 C 23.8125 -9.207031 24.234375 -10.222656 24.234375 -11.546875 C 24.234375 -12.878906 23.789062 -13.921875 22.90625 -14.671875 C 22.03125 -15.429688 20.816406 -15.8125 19.265625 -15.8125 L 12.578125 -15.8125 L 12.578125 -7.453125 Z M 19.375 -7.453125 "/></g></g></g><g fill="#ffffff" fill-opacity="1"><g transform="translate(91.966907, 211.269691)"><g><path d="M 12.421875 -37.890625 L 12.421875 -15.21875 C 12.421875 -12.957031 12.976562 -11.210938 14.09375 -9.984375 C 15.207031 -8.765625 16.84375 -8.15625 19 -8.15625 C 21.15625 -8.15625 22.8125 -8.765625 23.96875 -9.984375 C 25.125 -11.210938 25.703125 -12.957031 25.703125 -15.21875 L 25.703125 -37.890625 L 34.921875 -37.890625 L 34.921875 -15.28125 C 34.921875 -11.894531 34.203125 -9.03125 32.765625 -6.6875 C 31.328125 -4.351562 29.394531 -2.59375 26.96875 -1.40625 C 24.539062 -0.21875 21.832031 0.375 18.84375 0.375 C 15.851562 0.375 13.175781 -0.207031 10.8125 -1.375 C 8.457031 -2.539062 6.597656 -4.300781 5.234375 -6.65625 C 3.867188 -9.019531 3.1875 -11.894531 3.1875 -15.28125 L 3.1875 -37.890625 Z M 12.421875 -37.890625 "/></g></g></g><g fill="#ffffff" fill-opacity="1"><g transform="translate(134.118085, 211.269691)"><g><path d="M 17.0625 0.375 C 14.289062 0.375 11.804688 -0.0703125 9.609375 -0.96875 C 7.410156 -1.875 5.65625 -3.207031 4.34375 -4.96875 C 3.03125 -6.726562 2.335938 -8.851562 2.265625 -11.34375 L 12.09375 -11.34375 C 12.238281 -9.9375 12.722656 -8.863281 13.546875 -8.125 C 14.378906 -7.382812 15.460938 -7.015625 16.796875 -7.015625 C 18.160156 -7.015625 19.238281 -7.328125 20.03125 -7.953125 C 20.820312 -8.585938 21.21875 -9.460938 21.21875 -10.578125 C 21.21875 -11.515625 20.898438 -12.285156 20.265625 -12.890625 C 19.640625 -13.503906 18.867188 -14.007812 17.953125 -14.40625 C 17.035156 -14.800781 15.726562 -15.253906 14.03125 -15.765625 C 11.582031 -16.515625 9.582031 -17.269531 8.03125 -18.03125 C 6.488281 -18.789062 5.160156 -19.90625 4.046875 -21.375 C 2.929688 -22.851562 2.375 -24.78125 2.375 -27.15625 C 2.375 -30.675781 3.648438 -33.4375 6.203125 -35.4375 C 8.765625 -37.4375 12.097656 -38.4375 16.203125 -38.4375 C 20.367188 -38.4375 23.726562 -37.4375 26.28125 -35.4375 C 28.84375 -33.4375 30.210938 -30.65625 30.390625 -27.09375 L 20.40625 -27.09375 C 20.332031 -28.320312 19.878906 -29.285156 19.046875 -29.984375 C 18.222656 -30.691406 17.164062 -31.046875 15.875 -31.046875 C 14.757812 -31.046875 13.859375 -30.75 13.171875 -30.15625 C 12.484375 -29.5625 12.140625 -28.707031 12.140625 -27.59375 C 12.140625 -26.363281 12.710938 -25.40625 13.859375 -24.71875 C 15.015625 -24.039062 16.816406 -23.304688 19.265625 -22.515625 C 21.710938 -21.679688 23.703125 -20.882812 25.234375 -20.125 C 26.765625 -19.375 28.085938 -18.28125 29.203125 -16.84375 C 30.316406 -15.40625 30.875 -13.550781 30.875 -11.28125 C 30.875 -9.125 30.328125 -7.160156 29.234375 -5.390625 C 28.140625 -3.628906 26.546875 -2.226562 24.453125 -1.1875 C 22.367188 -0.144531 19.90625 0.375 17.0625 0.375 Z M 17.0625 0.375 "/></g></g></g><g fill="#13104c" fill-opacity="1"><g transform="translate(210.599093, 214.152828)"><g><path d="M 12.53125 0 L 12.53125 -35.25 L 0.703125 -35.25 L 0.703125 -39.78125 L 29.265625 -39.78125 L 29.265625 -35.25 L 17.4375 -35.25 L 17.4375 0 Z M 12.53125 0 "/></g></g></g><g fill="#13104c" fill-opacity="1"><g transform="translate(240.551699, 214.152828)"><g><path d="M 4.703125 0 L 4.703125 -39.78125 L 30.9375 -39.78125 L 30.9375 -35.25 L 9.609375 -35.25 L 9.609375 -23.15625 L 28.671875 -23.15625 L 28.671875 -18.671875 L 9.609375 -18.671875 L 9.609375 -4.53125 L 30.9375 -4.53125 L 30.9375 0 Z M 4.703125 0 "/></g></g></g><g fill="#13104c" fill-opacity="1"><g transform="translate(274.282109, 214.152828)"><g><path d="M 4.703125 0 L 4.703125 -39.78125 L 9.609375 -39.78125 L 9.609375 -18.578125 L 28.390625 -39.78125 L 34.21875 -39.78125 L 19.328125 -22.734375 L 34.5 0 L 28.609375 0 L 15.921875 -18.890625 L 9.609375 -11.65625 L 9.609375 0 Z M 4.703125 0 "/></g></g></g><g fill="#13104c" fill-opacity="1"><g transform="translate(309.685536, 214.152828)"><g><path d="M 3.34375 0 L 3.34375 -4.53125 L 8.203125 -4.53125 L 8.203125 -35.25 L 3.34375 -35.25 L 3.34375 -39.78125 L 17.984375 -39.78125 L 17.984375 -35.25 L 13.125 -35.25 L 13.125 -4.53125 L 17.984375 -4.53125 L 17.984375 0 Z M 3.34375 0 "/></g></g></g></svg>