<svg xmlns="http://www.w3.org/2000/svg" xmlns:xlink="http://www.w3.org/1999/xlink" width="538" zoomAndPan="magnify" viewBox="0 0 403.5 148.499996" height="198" preserveAspectRatio="xMidYMid meet" version="1.0"><defs><g/><clipPath id="f0426f171d"><path d="M 0.429688 0 L 402.574219 0 L 402.574219 148 L 0.429688 148 Z M 0.429688 0 " clip-rule="nonzero"/></clipPath><clipPath id="ef2c871c44"><path d="M 216.019531 37.765625 L 365.695312 37.765625 L 365.695312 110.363281 L 216.019531 110.363281 Z M 216.019531 37.765625 " clip-rule="nonzero"/></clipPath><clipPath id="1e608ec9ec"><path d="M 220.511719 37.765625 L 361.195312 37.765625 C 362.386719 37.765625 363.53125 38.238281 364.375 39.082031 C 365.214844 39.921875 365.6875 41.0625 365.6875 42.253906 L 365.6875 105.875 C 365.6875 107.066406 365.214844 108.207031 364.375 109.046875 C 363.53125 109.890625 362.386719 110.363281 361.195312 110.363281 L 220.511719 110.363281 C 219.320312 110.363281 218.175781 109.890625 217.335938 109.046875 C 216.492188 108.207031 216.019531 107.066406 216.019531 105.875 L 216.019531 42.253906 C 216.019531 41.0625 216.492188 39.921875 217.335938 39.082031 C 218.175781 38.238281 219.320312 37.765625 220.511719 37.765625 " clip-rule="nonzero"/></clipPath><clipPath id="579d6bbd87"><path d="M 37.867188 37.765625 L 216 37.765625 L 216 110.417969 L 37.867188 110.417969 Z M 37.867188 37.765625 " clip-rule="nonzero"/></clipPath></defs><g clip-path="url(#f0426f171d)"><path fill="#ffffff" d="M 0.429688 0 L 403.070312 0 L 403.070312 154.921875 L 0.429688 154.921875 Z M 0.429688 0 " fill-opacity="1" fill-rule="nonzero"/><path fill="#ffffff" d="M 0.429688 0 L 403.070312 0 L 403.070312 148.183594 L 0.429688 148.183594 Z M 0.429688 0 " fill-opacity="1" fill-rule="nonzero"/></g><g clip-path="url(#ef2c871c44)"><g clip-path="url(#1e608ec9ec)"><path stroke-linecap="butt" transform="matrix(0.74876, 0, 0, 0.747927, 216.018544, 37.766003)" fill="none" stroke-linejoin="miter" d="M 6.000818 -0.000505696 L 193.889504 -0.000505696 C 195.480676 -0.000505696 197.009244 0.631449 198.136107 1.759566 C 199.257753 2.882461 199.889004 4.407509 199.889004 6.000452 L 199.889004 91.063638 C 199.889004 92.656582 199.257753 94.181629 198.136107 95.304524 C 197.009244 96.432641 195.480676 97.064596 193.889504 97.064596 L 6.000818 97.064596 C 4.409646 97.064596 2.881078 96.432641 1.759432 95.304524 C 0.63257 94.181629 0.00131806 92.656582 0.00131806 91.063638 L 0.00131806 6.000452 C 0.00131806 4.407509 0.63257 2.882461 1.759432 1.759566 C 2.881078 0.631449 4.409646 -0.000505696 6.000818 -0.000505696 " stroke="#13104c" stroke-width="8" stroke-opacity="1" stroke-miterlimit="4"/></g></g><g clip-path="url(#579d6bbd87)"><path fill="#a41e22" d="M 37.867188 37.765625 L 215.902344 37.765625 L 215.902344 110.222656 L 37.867188 110.222656 Z M 37.867188 37.765625 " fill-opacity="1" fill-rule="nonzero"/></g><g fill="#ffffff" fill-opacity="1"><g transform="translate(71.494461, 96.357814)"><g><path d="M 26.28125 -19.421875 C 28.476562 -18.960938 30.238281 -17.875 31.5625 -16.15625 C 32.894531 -14.445312 33.5625 -12.5 33.5625 -10.3125 C 33.5625 -7.144531 32.457031 -4.632812 30.25 -2.78125 C 28.039062 -0.925781 24.957031 0 21 0 L 3.34375 0 L 3.34375 -37.890625 L 20.40625 -37.890625 C 24.25 -37.890625 27.257812 -37.003906 29.4375 -35.234375 C 31.613281 -33.472656 32.703125 -31.082031 32.703125 -28.0625 C 32.703125 -25.832031 32.117188 -23.976562 30.953125 -22.5 C 29.785156 -21.03125 28.226562 -20.003906 26.28125 -19.421875 Z M 12.578125 -22.5625 L 18.625 -22.5625 C 20.132812 -22.5625 21.289062 -22.894531 22.09375 -23.5625 C 22.90625 -24.226562 23.3125 -25.207031 23.3125 -26.5 C 23.3125 -27.789062 22.90625 -28.78125 22.09375 -29.46875 C 21.289062 -30.15625 20.132812 -30.5 18.625 -30.5 L 12.578125 -30.5 Z M 19.375 -7.453125 C 20.925781 -7.453125 22.125 -7.800781 22.96875 -8.5 C 23.8125 -9.195312 24.234375 -10.210938 24.234375 -11.546875 C 24.234375 -12.878906 23.789062 -13.921875 22.90625 -14.671875 C 22.03125 -15.429688 20.816406 -15.8125 19.265625 -15.8125 L 12.578125 -15.8125 L 12.578125 -7.453125 Z M 19.375 -7.453125 "/></g></g></g><g fill="#ffffff" fill-opacity="1"><g transform="translate(111.161012, 96.357814)"><g><path d="M 12.40625 -37.890625 L 12.40625 -15.21875 C 12.40625 -12.945312 12.960938 -11.203125 14.078125 -9.984375 C 15.203125 -8.765625 16.84375 -8.15625 19 -8.15625 C 21.15625 -8.15625 22.804688 -8.765625 23.953125 -9.984375 C 25.109375 -11.203125 25.6875 -12.945312 25.6875 -15.21875 L 25.6875 -37.890625 L 34.921875 -37.890625 L 34.921875 -15.265625 C 34.921875 -11.890625 34.195312 -9.03125 32.75 -6.6875 C 31.3125 -4.351562 29.378906 -2.59375 26.953125 -1.40625 C 24.523438 -0.21875 21.816406 0.375 18.828125 0.375 C 15.847656 0.375 13.175781 -0.207031 10.8125 -1.375 C 8.457031 -2.539062 6.597656 -4.300781 5.234375 -6.65625 C 3.867188 -9.019531 3.1875 -11.890625 3.1875 -15.265625 L 3.1875 -37.890625 Z M 12.40625 -37.890625 "/></g></g></g><g fill="#ffffff" fill-opacity="1"><g transform="translate(153.31006, 96.357814)"><g><path d="M 17.046875 0.375 C 14.285156 0.375 11.804688 -0.0703125 9.609375 -0.96875 C 7.410156 -1.875 5.65625 -3.207031 4.34375 -4.96875 C 3.03125 -6.726562 2.335938 -8.847656 2.265625 -11.328125 L 12.09375 -11.328125 C 12.238281 -9.929688 12.722656 -8.863281 13.546875 -8.125 C 14.367188 -7.382812 15.445312 -7.015625 16.78125 -7.015625 C 18.144531 -7.015625 19.222656 -7.328125 20.015625 -7.953125 C 20.804688 -8.585938 21.203125 -9.460938 21.203125 -10.578125 C 21.203125 -11.515625 20.890625 -12.285156 20.265625 -12.890625 C 19.640625 -13.503906 18.863281 -14.007812 17.9375 -14.40625 C 17.019531 -14.800781 15.71875 -15.253906 14.03125 -15.765625 C 11.582031 -16.515625 9.582031 -17.265625 8.03125 -18.015625 C 6.488281 -18.773438 5.160156 -19.890625 4.046875 -21.359375 C 2.929688 -22.835938 2.375 -24.765625 2.375 -27.140625 C 2.375 -30.671875 3.648438 -33.429688 6.203125 -35.421875 C 8.753906 -37.421875 12.082031 -38.421875 16.1875 -38.421875 C 20.363281 -38.421875 23.726562 -37.421875 26.28125 -35.421875 C 28.832031 -33.429688 30.203125 -30.65625 30.390625 -27.09375 L 20.40625 -27.09375 C 20.332031 -28.3125 19.878906 -29.269531 19.046875 -29.96875 C 18.222656 -30.675781 17.160156 -31.03125 15.859375 -31.03125 C 14.742188 -31.03125 13.84375 -30.734375 13.15625 -30.140625 C 12.476562 -29.546875 12.140625 -28.691406 12.140625 -27.578125 C 12.140625 -26.359375 12.710938 -25.40625 13.859375 -24.71875 C 15.015625 -24.03125 16.816406 -23.289062 19.265625 -22.5 C 21.710938 -21.675781 23.703125 -20.882812 25.234375 -20.125 C 26.765625 -19.375 28.085938 -18.273438 29.203125 -16.828125 C 30.316406 -15.390625 30.875 -13.539062 30.875 -11.28125 C 30.875 -9.125 30.320312 -7.160156 29.21875 -5.390625 C 28.125 -3.628906 26.53125 -2.226562 24.4375 -1.1875 C 22.351562 -0.144531 19.890625 0.375 17.046875 0.375 Z M 17.046875 0.375 "/></g></g></g><g fill="#13104c" fill-opacity="1"><g transform="translate(239.535721, 90.183329)"><g><path d="M 9.015625 0 L 9.015625 -25 L 0.21875 -25 L 0.21875 -31.5 L 25.8125 -31.5 L 25.8125 -25 L 17.015625 -25 L 17.015625 0 Z M 9.015625 0 "/></g></g></g><g fill="#13104c" fill-opacity="1"><g transform="translate(265.55086, 90.183329)"><g><path d="M 2.984375 0 L 2.984375 -31.5 L 26.921875 -31.5 L 26.921875 -25 L 10.984375 -25 L 10.984375 -19.1875 L 25.34375 -19.1875 L 25.34375 -13.15625 L 10.984375 -13.15625 L 10.984375 -6.5 L 26.921875 -6.5 L 26.921875 0 Z M 2.984375 0 "/></g></g></g><g fill="#13104c" fill-opacity="1"><g transform="translate(294.598968, 90.183329)"><g><path d="M 2.984375 0 L 2.984375 -31.5 L 10.984375 -31.5 L 10.984375 -18.96875 L 20.71875 -31.5 L 29.578125 -31.5 L 18.46875 -17.78125 L 29.578125 0 L 21.0625 0 L 13.96875 -12.171875 L 10.984375 -8.5 L 10.984375 0 Z M 2.984375 0 "/></g></g></g><g fill="#13104c" fill-opacity="1"><g transform="translate(324.159688, 90.183329)"><g><path d="M 1.703125 0 L 1.703125 -6.03125 L 5.21875 -6.03125 L 5.125 -25.46875 L 1.703125 -25.46875 L 1.703125 -31.5 L 16.234375 -31.5 L 16.234375 -25.46875 L 12.78125 -25.46875 L 12.6875 -6.03125 L 16.234375 -6.03125 L 16.234375 0 Z M 1.703125 0 "/></g></g></g></svg>